<svg width="160" height="33" viewBox="0 0 160 33" fill="none" xmlns="http://www.w3.org/2000/svg">
<g clip-path="url(#clip0_6_6)">
<g clip-path="url(#clip1_6_6)">
<g clip-path="url(#clip2_6_6)">
<path d="M34.9999 11.0474C35.5071 10.221 36.1644 9.57303 36.9721 9.10341C37.7985 8.63386 38.7376 8.39913 39.7894 8.39913V12.5405H38.747C37.5073 12.5405 36.5682 12.8317 35.9296 13.414C35.3098 13.9962 34.9999 15.0104 34.9999 16.4567V24.2325H31.0557V8.62449H34.9999V11.0474ZM56.9553 16.0904C56.9553 16.6538 56.9177 17.161 56.8426 17.6118H45.4324C45.5263 18.7387 45.9208 19.6214 46.6157 20.26C47.3107 20.8987 48.1652 21.218 49.1795 21.218C50.6445 21.218 51.6869 20.5887 52.3067 19.3303H56.5609C56.1101 20.8329 55.2461 22.0726 53.9689 23.0492C52.6917 24.0071 51.1234 24.486 49.264 24.486C47.7614 24.486 46.4091 24.1574 45.207 23.5C44.0238 22.8238 43.094 21.8753 42.4179 20.6545C41.7605 19.4336 41.4318 18.025 41.4318 16.4285C41.4318 14.8132 41.7605 13.3951 42.4179 12.1743C43.0752 10.9535 43.9956 10.0144 45.1789 9.35704C46.3621 8.69961 47.7238 8.37094 49.264 8.37094C50.7478 8.37094 52.0719 8.69024 53.2364 9.32885C54.4197 9.96746 55.3307 10.8784 55.9692 12.0616C56.6266 13.2262 56.9553 14.569 56.9553 16.0904ZM52.8702 14.9635C52.8513 13.9493 52.4851 13.1416 51.7714 12.5405C51.0577 11.9208 50.1843 11.6109 49.1513 11.6109C48.1746 11.6109 47.3482 11.9114 46.6721 12.5124C46.0146 13.0947 45.6108 13.9117 45.4606 14.9635H52.8702ZM58.82 16.3721C58.82 14.7944 59.1299 13.3951 59.7497 12.1743C60.3883 10.9535 61.2429 10.0144 62.3135 9.35704C63.4028 8.69961 64.6143 8.37094 65.9478 8.37094C67.1123 8.37094 68.1265 8.60575 68.9905 9.0753C69.8733 9.54484 70.5777 10.1364 71.1035 10.8502V8.62449H75.0759V24.2325H71.1035V21.9504C70.5964 22.683 69.892 23.2934 68.9905 23.7817C68.1078 24.2513 67.0841 24.486 65.9197 24.486C64.6049 24.486 63.4028 24.148 62.3135 23.4718C61.2429 22.7957 60.3883 21.8471 59.7497 20.6263C59.1299 19.3867 58.82 17.9686 58.82 16.3721ZM71.1035 16.4285C71.1035 15.4706 70.9157 14.6535 70.5401 13.9774C70.1644 13.2825 69.6573 12.7565 69.0187 12.3998C68.3801 12.0241 67.6946 11.8363 66.9621 11.8363C66.2295 11.8363 65.5534 12.0147 64.9336 12.3716C64.3138 12.7284 63.8067 13.2543 63.4123 13.9493C63.0366 14.6254 62.8488 15.433 62.8488 16.3721C62.8488 17.3113 63.0366 18.1377 63.4123 18.8514C63.8067 19.5463 64.3138 20.0816 64.9336 20.4573C65.5722 20.8329 66.2484 21.0207 66.9621 21.0207C67.6946 21.0207 68.3801 20.8423 69.0187 20.4854C69.6573 20.1098 70.1644 19.5839 70.5401 18.9077C70.9157 18.2128 71.1035 17.3864 71.1035 16.4285ZM83.5202 11.8645V19.4148C83.5202 19.9407 83.6429 20.3258 83.8869 20.57C84.1494 20.7953 84.5815 20.908 85.1825 20.908H87.0137V24.2325H84.5347C81.21 24.2325 79.548 22.6172 79.548 19.3867V11.8645H77.6886V8.62449H79.548V4.76476H83.5202V8.62449H87.0137V11.8645H83.5202ZM104.36 16.0904C104.36 16.6538 104.322 17.161 104.247 17.6118H92.8376C92.9313 18.7387 93.3254 19.6214 94.0201 20.26C94.7156 20.8987 95.5702 21.218 96.5839 21.218C98.0492 21.218 99.092 20.5887 99.7115 19.3303H103.966C103.515 20.8329 102.651 22.0726 101.374 23.0492C100.097 24.0071 98.5282 24.486 96.6687 24.486C95.1663 24.486 93.8141 24.1574 92.6122 23.5C91.4288 22.8238 90.4991 21.8753 89.823 20.6545C89.1655 19.4336 88.8368 18.025 88.8368 16.4285C88.8368 14.8132 89.1655 13.3951 89.823 12.1743C90.4797 10.9535 91.4006 10.0144 92.5839 9.35704C93.7673 8.69961 95.1283 8.37094 96.6687 8.37094C98.1525 8.37094 99.4765 8.69024 100.641 9.32885C101.825 9.96746 102.736 10.8784 103.374 12.0616C104.031 13.2262 104.36 14.569 104.36 16.0904ZM100.275 14.9635C100.256 13.9493 99.89 13.1416 99.176 12.5405C98.4627 11.9208 97.5887 11.6109 96.5564 11.6109C95.5791 11.6109 94.7527 11.9114 94.0766 12.5124C93.4191 13.0947 93.0153 13.9117 92.865 14.9635H100.275ZM111.183 11.0474C111.69 10.221 112.348 9.57303 113.156 9.10341C113.982 8.63386 114.921 8.39913 115.973 8.39913V12.5405H114.93C113.69 12.5405 112.752 12.8317 112.113 13.414C111.493 13.9962 111.183 15.0104 111.183 16.4567V24.2325H107.239V8.62449H111.183V11.0474ZM133.139 16.0904C133.139 16.6538 133.101 17.161 133.026 17.6118H121.616C121.71 18.7387 122.104 19.6214 122.799 20.26C123.494 20.8987 124.349 21.218 125.362 21.218C126.828 21.218 127.87 20.5887 128.49 19.3303H132.744C132.294 20.8329 131.429 22.0726 130.152 23.0492C128.875 24.0071 127.307 24.486 125.447 24.486C123.945 24.486 122.593 24.1574 121.391 23.5C120.207 22.8238 119.278 21.8753 118.602 20.6545C117.944 19.4336 117.615 18.025 117.615 16.4285C117.615 14.8132 117.944 13.3951 118.602 12.1743C119.258 10.9535 120.179 10.0144 121.362 9.35704C122.546 8.69961 123.907 8.37094 125.447 8.37094C126.931 8.37094 128.255 8.69024 129.42 9.32885C130.603 9.96746 131.514 10.8784 132.152 12.0616C132.81 13.2262 133.139 14.569 133.139 16.0904ZM129.054 14.9635C129.034 13.9493 128.669 13.1416 127.954 12.5405C127.241 11.9208 126.367 11.6109 125.335 11.6109C124.358 11.6109 123.531 11.9114 122.855 12.5124C122.198 13.0947 121.795 13.9117 121.644 14.9635H129.054ZM150.527 16.0904C150.527 16.6538 150.489 17.161 150.414 17.6118H139.004C139.098 18.7387 139.492 19.6214 140.187 20.26C140.883 20.8987 141.737 21.218 142.751 21.218C144.216 21.218 145.258 20.5887 145.878 19.3303H150.132C149.681 20.8329 148.818 22.0726 147.541 23.0492C146.263 24.0071 144.695 24.486 142.836 24.486C141.333 24.486 139.98 24.1574 138.778 23.5C137.595 22.8238 136.665 21.8753 135.989 20.6545C135.332 19.4336 135.004 18.025 135.004 16.4285C135.004 14.8132 135.332 13.3951 135.989 12.1743C136.647 10.9535 137.567 10.0144 138.75 9.35704C139.933 8.69961 141.295 8.37094 142.836 8.37094C144.32 8.37094 145.643 8.69024 146.808 9.32885C147.992 9.96746 148.902 10.8784 149.541 12.0616C150.198 13.2262 150.527 14.569 150.527 16.0904ZM146.441 14.9635C146.423 13.9493 146.057 13.1416 145.343 12.5405C144.629 11.9208 143.756 11.6109 142.723 11.6109C141.746 11.6109 140.92 11.9114 140.244 12.5124C139.586 13.0947 139.182 13.9117 139.032 14.9635H146.441ZM157.35 3.38428V24.2325H153.406V3.38428H157.35Z" fill="#151515" style="fill:#151515;fill:color(display-p3 0.0833 0.0833 0.0833);fill-opacity:1;"/>
<path d="M24.4163 12.6549L14.7328 8.87241C14.1661 8.59284 13.5344 8.45819 12.8982 8.48137C12.262 8.50456 11.6427 8.68493 11.0996 9.00504C10.5565 9.32515 10.1078 9.77442 9.79647 10.3096C9.48517 10.8449 9.32176 11.4482 9.32184 12.0618V19.7883C9.32281 20.7381 9.71433 21.6489 10.4108 22.321C11.1071 22.9932 12.0515 23.372 13.0371 23.3743C13.6268 23.3726 14.2078 23.2366 14.7328 22.9776L24.4163 19.0354C25.0262 18.7351 25.5381 18.2783 25.8956 17.7153C26.253 17.1523 26.4422 16.5052 26.4422 15.8451C26.4422 15.1851 26.253 14.5379 25.8956 13.975C25.5381 13.412 25.0262 12.9552 24.4163 12.6549ZM22.8106 15.846L22.8123 15.8475C22.8143 15.863 22.8106 15.8787 22.8018 15.8919C22.7927 15.9056 22.7788 15.9156 22.7627 15.92L13.1217 19.845C13.0935 19.8564 13.0665 19.8761 13.0361 19.8761H13.0351C13.0053 19.8757 12.9756 19.8581 12.9607 19.8324C12.9532 19.8194 12.9498 19.8047 12.9511 19.79V12.0618C12.9498 12.0471 12.9532 12.0323 12.9607 12.0195C12.9681 12.0066 12.9795 11.9961 12.9931 11.9895C13.0062 11.9811 13.0213 11.9763 13.0371 11.9755C13.0666 11.9763 13.0929 11.9931 13.1204 12.0039L22.77 15.7702C22.7843 15.7769 22.7958 15.788 22.8027 15.8018C22.8093 15.8149 22.8115 15.8296 22.8088 15.8439L22.8106 15.846ZM28.2191 25.6067L28.2221 25.608C28.5458 25.9497 28.7158 26.4012 28.6945 26.8635C28.6732 27.3264 28.462 27.7622 28.1074 28.075C25.703 30.1949 22.7095 31.5934 19.4934 32.0992C16.2771 32.6049 12.9777 32.1961 9.99882 30.9229C7.01993 29.6495 4.49074 27.5668 2.72074 24.9297C0.950739 22.2926 0.0167018 19.2153 0.0329226 16.0745C0.0491433 12.9338 1.01491 9.8657 2.81207 7.24569C4.60922 4.62568 7.1598 2.5674 10.1517 1.32271C13.1436 0.07803 16.4471 -0.299075 19.6579 0.237544C22.8687 0.774162 25.8476 2.20123 28.23 4.34412C28.5673 4.66427 28.7616 5.0987 28.7716 5.5549C28.7815 6.01108 28.6062 6.45298 28.2831 6.78646C27.96 7.11995 27.5146 7.31868 27.0417 7.34032C26.5688 7.36196 26.1058 7.20482 25.7514 6.90234C23.8846 5.22353 21.5505 4.10562 19.0349 3.6854C16.5191 3.26519 13.9309 3.56091 11.5869 4.53636C9.24284 5.51182 7.24465 7.12471 5.83685 9.17766C4.42905 11.2306 3.6727 13.6346 3.66035 16.0954C3.648 18.5561 4.3802 20.967 5.76732 23.033C7.15445 25.099 9.13638 26.7305 11.4705 27.7277C13.8046 28.725 16.3898 29.0448 18.9096 28.6481C21.4294 28.2513 23.7746 27.1552 25.6581 25.4939C26.0136 25.183 26.4822 25.0203 26.9618 25.0415C27.4407 25.0625 27.8915 25.2653 28.2159 25.6054L28.2191 25.6067Z" fill="#F97316" style="fill:#F97316;fill:color(display-p3 0.9765 0.4510 0.0863);fill-opacity:1;"/>
</g>
</g>
</g>
<defs>
<clipPath id="clip0_6_6">
<rect width="160" height="32.31" fill="white" style="fill:white;fill-opacity:1;"/>
</clipPath>
<clipPath id="clip1_6_6">
<rect width="160" height="32.31" fill="white" style="fill:white;fill-opacity:1;"/>
</clipPath>
<clipPath id="clip2_6_6">
<rect width="159.934" height="32.31" fill="white" style="fill:white;fill-opacity:1;" transform="translate(0.0327148)"/>
</clipPath>
</defs>
</svg>
